<svg width="88" height="22" viewBox="0 0 88 22" xmlns="http://www.w3.org/2000/svg"><title>Group 17</title><desc>Created with Sketch.</desc><g fill="#fc0" fill-rule="nonzero"><path d="M19.103 0c1.595 0 2.897 1.295 2.897 2.897v16.208c0 1.595-1.295 2.896-2.897 2.896h-16.207c-1.595 0-2.897-1.294-2.897-2.896v-16.215c0-1.594 1.294-2.889 2.897-2.889h16.207zm-7.959 6.39c-3.233 0-5.856 2.823-5.856 6.308 0 3.486 2.622 6.302 5.856 6.302 3.233 0 5.856-2.823 5.856-6.309s-2.616-6.301-5.856-6.301zm0 1.868c2.277 0 4.126 1.99 4.126 4.44s-1.843 4.441-4.126 4.441c-2.277 0-4.126-1.991-4.126-4.441 0-2.45 1.85-4.44 4.126-4.44zm.126.778c-.063 0-.126.054-.126.128v3.31c0 .095.095.163.176.115l2.73-1.523c.062-.033.081-.115.05-.182-.566-1.07-1.617-1.801-2.83-1.848zm-4.943-2.971c-.238 0-.467.102-.635.284l-.428.46c-.169.181-.264.427-.264.684 0 .257.095.503.264.684l.352.379c.057.06.139.046.189-.014.208-.307.437-.597.686-.867.251-.271.522-.52.811-.744.063-.041.069-.136.019-.197l-.358-.386c-.168-.182-.397-.284-.635-.284zm5.837-2.065h-2.095c-.496 0-.898.433-.899.968v.786c0 .087.075.149.157.128.593-.184 1.207-.278 1.824-.277.598 0 1.19.087 1.762.257.076.02.151-.04.151-.128v-.765c0-.535-.403-.968-.899-.968z"/><path d="M43.255 17.465c-4.247.02-4.247-3.46-4.247-4.014l-.007-13.036 2.591-.415v12.957c0 .315 0 2.305 1.663 2.311v2.197zm-10.503-2.13c.795 0 1.385-.047 1.796-.127v-2.658c-.205-.055-.413-.098-.624-.128-.298-.045-.599-.067-.901-.067-.285 0-.577.02-.868.067-.292.04-.557.12-.789.234-.232.114-.424.274-.564.481-.145.207-.212.328-.212.641 0 .614.212.969.596 1.202.384.234.908.354 1.564.354zm-.225-9.484c.854 0 1.577.107 2.16.321.583.214 1.054.514 1.398.895.352.387.59.902.735 1.45.153.548.225 1.149.225 1.809v6.72c-.397.086-1.001.186-1.809.306s-1.716.181-2.724.181c-.669 0-1.285-.067-1.835-.194-.557-.127-1.027-.334-1.425-.621-.391-.287-.695-.655-.921-1.108-.219-.455-.332-1.095-.332-1.763 0-.641.125-1.049.372-1.49.251-.44.589-.801 1.013-1.082.431-.281.921-.481 1.484-.601.564-.12 1.153-.181 1.762-.181.285 0 .584.02.902.053.312.034.65.094 1.008.181v-.428c0-.3-.034-.587-.106-.854-.07-.263-.197-.507-.372-.715-.179-.207-.41-.368-.702-.481-.292-.114-.664-.201-1.107-.201-.596 0-1.14.073-1.637.161-.497.086-.908.187-1.22.3l-.311-2.143c.324-.114.808-.228 1.432-.34.623-.121 1.292-.174 2.008-.174zm51.174 9.41c.795 0 1.384-.047 1.795-.128v-2.657c-.145-.04-.351-.087-.623-.128-.299-.045-.6-.067-.902-.067-.284 0-.576.02-.868.067-.291.04-.556.12-.788.234-.233.114-.424.274-.564.481-.146.207-.212.328-.212.641 0 .614.212.969.596 1.202.391.24.908.354 1.564.354zm-.219-9.477c.854 0 1.577.106 2.16.32.583.214 1.053.514 1.398.895.344.381.59.902.735 1.45.153.548.225 1.149.225 1.81v6.719c-.397.086-1.001.186-1.809.307-.808.12-1.716.18-2.724.18-.669 0-1.285-.067-1.835-.194-.557-.127-1.027-.334-1.425-.621-.391-.287-.695-.655-.921-1.108-.219-.454-.332-1.095-.332-1.763 0-.641.126-1.049.372-1.49.251-.44.589-.801 1.013-1.082.431-.28.921-.481 1.484-.601.564-.12 1.153-.18 1.763-.18.284 0 .583.02.901.053.318.033.65.094 1.007.181v-.428c0-.301-.033-.588-.105-.855-.07-.263-.197-.507-.372-.715-.179-.207-.41-.368-.702-.481-.292-.114-.664-.2-1.107-.2-.596 0-1.14.073-1.637.16-.497.087-.908.187-1.22.301l-.311-2.144c.324-.114.808-.227 1.432-.34.623-.114 1.292-.173 2.008-.173zm-7.78-1.242c.868 0 1.578-.708 1.578-1.584 0-.874-.703-1.583-1.578-1.583-.874 0-1.577.708-1.577 1.583s.709 1.584 1.577 1.584zm1.305 12.923h-2.604v-11.274l2.604-.414v11.688zm-4.566 0c-4.247.02-4.247-3.46-4.247-4.014l-.007-13.036 2.591-.415v12.957c0 .315 0 2.305 1.663 2.311v2.197zm-8.423-5.77c0-1.129-.245-2.071-.722-2.725-.477-.661-1.146-.988-2.001-.988-.854 0-1.524.327-2.001.988-.477.661-.71 1.595-.71 2.725 0 1.142.239 1.909.716 2.571.477.668 1.146.995 2.001.995.854 0 1.524-.334 2.001-.995.477-.668.715-1.428.715-2.571zm2.65-.006c0 .882-.125 1.549-.384 2.277-.258.728-.623 1.349-1.093 1.863-.471.514-1.034.915-1.697 1.195-.662.28-1.683.44-2.193.44-.511-.006-1.524-.153-2.18-.44-.656-.287-1.22-.682-1.69-1.195-.471-.515-.835-1.136-1.101-1.863-.265-.728-.397-1.395-.397-2.277 0-.882.119-1.73.384-2.451.265-.721.636-1.336 1.113-1.85.477-.515 1.047-.909 1.696-1.189.656-.281 1.379-.414 2.16-.414.783 0 1.504.139 2.167.414.664.28 1.234.674 1.697 1.189.47.514.834 1.128 1.1 1.85.278.721.417 1.57.417 2.451zm-19.502 0c0 1.095.238 2.31.715 2.818s1.093.761 1.85.761c.411 0 .802-.06 1.166-.173.364-.114.656-.248.888-.407v-6.485c-.185-.04-.961-.201-1.711-.22-.941-.028-1.656.361-2.16.981-.497.622-.749 1.71-.749 2.726zm7.203 5.155c0 1.784-.451 3.085-1.359 3.914-.907.828-2.292 1.242-4.161 1.242-.683 0-2.1-.134-3.234-.387l.417-2.071c.948.2 2.2.254 2.857.254 1.04 0 1.782-.214 2.226-.641.444-.428.663-1.062.663-1.904v-.428c-.258.127-.596.254-1.013.388-.417.127-.901.194-1.445.194-.715 0-1.365-.114-1.954-.341-.59-.227-1.101-.561-1.518-1.002-.417-.44-.749-.995-.981-1.656-.232-.661-.352-1.843-.352-2.711 0-.815.126-1.837.372-2.518.252-.681.609-1.269 1.093-1.756.477-.487 1.061-.862 1.743-1.136.683-.273 1.483-.447 2.351-.447.843 0 1.618.106 2.373.234.755.127 1.398.26 1.921.406v10.366z"/></g></svg>