<svg width="99" height="26" viewBox="0 0 99 26" xmlns="http://www.w3.org/2000/svg"><title>Gatsby-Logo</title><desc>Created with Sketch.</desc><g fill="#fc0" fill-rule="nonzero"><path d="M58.556 11.6h2.608v9.412h-2.608v-1.224c-.932 1.412-2.143 1.506-2.888 1.506-2.888 0-4.751-2.259-4.751-4.988 0-2.824 1.863-4.988 4.565-4.988.745 0 2.143.094 2.981 1.506v-1.224h.093zm-4.844 4.706c0 1.506 1.025 2.635 2.608 2.635 1.491 0 2.608-1.129 2.608-2.635 0-1.506-1.025-2.635-2.608-2.635-1.491 0-2.608 1.129-2.608 2.635zm12.576-2.447v7.153h-2.608v-7.153h-1.025v-2.259h1.025v-3.2h2.608v3.2h1.77v2.259h-1.77zm7.918 0c-.652-.565-1.211-.659-1.491-.659-.652 0-1.025.282-1.025.753 0 .282.093.565.838.847l.652.188c.745.282 1.863.565 2.329 1.318.279.376.466.941.466 1.6 0 .847-.279 1.694-1.025 2.353-.745.659-1.677 1.035-2.795 1.035-1.956 0-2.981-.941-3.633-1.6l1.397-1.6c.559.565 1.304 1.129 2.049 1.129.745 0 1.304-.376 1.304-1.035 0-.565-.466-.847-.838-.941l-.559-.188c-.652-.282-1.397-.565-1.956-1.129-.466-.471-.745-1.035-.745-1.788 0-.941.466-1.694.932-2.165.745-.565 1.677-.659 2.422-.659.652 0 1.77.094 2.981 1.035l-1.304 1.506zm5.683-1.035c.932-1.318 2.236-1.506 2.981-1.506 2.702 0 4.565 2.165 4.565 4.988 0 2.824-1.863 4.988-4.658 4.988-.559 0-1.956-.094-2.981-1.506v1.224h-2.515v-15.812h2.608v7.624zm-.279 3.482c0 1.506 1.025 2.635 2.608 2.635 1.491 0 2.608-1.129 2.608-2.635 0-1.506-1.025-2.635-2.608-2.635-1.584 0-2.608 1.129-2.608 2.635zm12.11 3.294l-4.472-8h3.074l2.888 5.365 2.608-5.365h2.981l-7.453 14.4h-2.981l3.354-6.4zm-41.455-6.4h-6.521v2.635h3.447c-.559 1.788-1.863 3.012-4.285 3.012-2.702 0-4.658-2.259-4.658-4.988 0-2.729 1.863-5.082 4.565-5.082 1.491 0 2.981.753 3.913 1.976l2.143-1.412c-1.397-1.976-3.633-3.106-6.055-3.106-4.099 0-7.453 3.388-7.453 7.624 0 4.235 3.167 7.624 7.453 7.624 4.285 0 7.453-3.388 7.453-7.624.093-.282 0-.471 0-.659z"/><path d="M13 0c-7.15 0-13 5.85-13 13s5.85 13 13 13 13-5.85 13-13-5.85-13-13-13zm-7.243 20.243c-1.95-1.95-2.971-4.55-2.971-7.057l10.121 10.029c-2.6-.093-5.2-1.021-7.15-2.971zm9.471 2.693l-12.164-12.164c1.021-4.55 5.107-7.986 9.936-7.986 3.436 0 6.407 1.671 8.264 4.179l-1.393 1.207c-1.579-2.136-4.086-3.529-6.871-3.529-3.621 0-6.686 2.321-7.893 5.571l10.679 10.679c2.693-.929 4.736-3.25 5.386-6.036h-4.457v-1.857h6.5c0 4.829-3.436 8.914-7.986 9.936z"/></g></svg>