<?xml version="1.0" encoding="UTF-8"?>
<svg width="26px" height="26px" viewBox="0 0 26 26" version="1.1" xmlns="http://www.w3.org/2000/svg" xmlns:xlink="http://www.w3.org/1999/xlink">
    <!-- Generator: Sketch 57.1 (83088) - https://sketch.com -->
    <title>Shape</title>
    <desc>Created with Sketch.</desc>
    <g id="Wireframes" stroke="none" stroke-width="1" fill="none" fill-rule="evenodd">
        <g id="Results---code---multiple-reasons-Copy-4" transform="translate(-403.000000, -1690.000000)" fill="#FFD633" fill-rule="nonzero">
            <g id="Group-18" transform="translate(403.000000, 1661.000000)">
                <g id="Gatsby-Logo" transform="translate(0.000000, 29.000000)">
                    <path d="M13,0 C5.85,0 0,5.85 0,13 C0,20.15 5.85,26 13,26 C20.15,26 26,20.15 26,13 C26,5.85 20.15,0 13,0 Z M5.75714286,20.2428571 C3.80714286,18.2928571 2.78571429,15.6928571 2.78571429,13.1857143 L12.9071429,23.2142857 C10.3071429,23.1214286 7.70714286,22.1928571 5.75714286,20.2428571 Z M15.2285714,22.9357143 L3.06428571,10.7714286 C4.08571429,6.22142857 8.17142857,2.78571429 13,2.78571429 C16.4357143,2.78571429 19.4071429,4.45714286 21.2642857,6.96428571 L19.8714286,8.17142857 C18.2928571,6.03571429 15.7857143,4.64285714 13,4.64285714 C9.37857143,4.64285714 6.31428571,6.96428571 5.10714286,10.2142857 L15.7857143,20.8928571 C18.4785714,19.9642857 20.5214286,17.6428571 21.1714286,14.8571429 L16.7142857,14.8571429 L16.7142857,13 L23.2142857,13 C23.2142857,17.8285714 19.7785714,21.9142857 15.2285714,22.9357143 Z" id="Shape"></path>
                </g>
            </g>
        </g>
    </g>
</svg>