<svg width="50" height="29" viewBox="0 0 50 29" xmlns="http://www.w3.org/2000/svg"><title>postmark-stamp</title><desc>Created with Sketch.</desc><g fill="#fc0" fill-rule="nonzero"><path d="M24.222 0c0 .89.721 1.611 1.611 1.611s1.611-.721 1.611-1.611h3.222c0 .89.721 1.611 1.611 1.611s1.611-.721 1.611-1.611h3.222c0 .89.721 1.611 1.611 1.611s1.611-.721 1.611-1.611h3.222c0 .89.721 1.611 1.611 1.611s1.611-.721 1.611-1.611h1.611c0 .89.721 1.611 1.611 1.611v1.611c-.89 0-1.611.721-1.611 1.611s.721 1.611 1.611 1.611v3.222c-.89 0-1.611.721-1.611 1.611s.721 1.611 1.611 1.611v3.222c-.89 0-1.611.721-1.611 1.611s.721 1.611 1.611 1.611v3.222c-.89 0-1.611.721-1.611 1.611s.721 1.611 1.611 1.611v1.611c-.89 0-1.611.721-1.611 1.611h-1.611c0-.89-.721-1.611-1.611-1.611s-1.611.721-1.611 1.611h-3.222c0-.89-.721-1.611-1.611-1.611s-1.611.721-1.611 1.611h-3.222c0-.89-.721-1.611-1.611-1.611s-1.611.721-1.611 1.611h-3.222c0-.89-.721-1.611-1.611-1.611s-1.611.721-1.611 1.611h-1.611c0-.89-.721-1.611-1.611-1.611v-1.611c.89 0 1.611-.721 1.611-1.611s-.721-1.611-1.611-1.611v-3.222c.89 0 1.611-.721 1.611-1.611s-.721-1.611-1.611-1.611v-3.222c.89 0 1.611-.721 1.611-1.611s-.721-1.611-1.611-1.611v-3.222c.89 0 1.611-.721 1.611-1.611s-.721-1.611-1.611-1.611v-1.611c.89 0 1.611-.721 1.611-1.611h1.611zm22.556 3.222h-22.556v22.556h22.556v-22.556zm-1.611 1.611v19.333h-19.333v-19.333h19.333zm-9.544 3.663h-4.634v1.553h1.553v9.342h-1.553v1.553h5.055v-1.553h-1.619v-3.221h1.635c1.669-.011 2.852-.369 3.552-1.074.699-.705 1.049-1.624 1.049-2.759 0-.914-.16-1.648-.479-2.201-.319-.553-.847-.965-1.582-1.235-.735-.27-1.728-.405-2.978-.405h.001zm-1.198 1.553h1.297c1.107 0 1.889.18 2.346.541.457.361.686.929.686 1.706 0 .611-.107 1.089-.322 1.433-.215.344-.551.586-1.008.727-.4.123-.918.192-1.554.207l-.28.003h-1.165v-4.617h1.297-1.297z"/><path d="M6.977 14c3.677 0 6.487 1.864 8.523 3.205 1.773 1.159 4.243 1.886 6.977 1.886 3.677 0 6.864-1.295 8.523-3.205v.909c-1.659 1.909-4.846 3.205-8.523 3.205-2.734 0-5.204-.727-6.977-1.886-2.036-1.341-4.846-3.205-8.523-3.205-2.734 0-5.204.727-6.977 1.886v-.909c1.773-1.159 4.243-1.886 6.977-1.886zm0-4c3.677 0 6.487 1.864 8.523 3.205 1.773 1.159 4.243 1.886 6.977 1.886 3.677 0 6.864-1.295 8.523-3.205v.909c-1.659 1.909-4.846 3.205-8.523 3.205-2.734 0-5.204-.727-6.977-1.886-2.036-1.341-4.846-3.205-8.523-3.205-2.734 0-5.204.727-6.977 1.886v-.909c1.773-1.159 4.243-1.886 6.977-1.886zm0-4c3.677 0 6.487 1.864 8.523 3.205 1.773 1.159 4.243 1.886 6.977 1.886 3.677 0 6.864-1.295 8.523-3.205v.909c-1.659 1.909-4.846 3.205-8.523 3.205-2.734 0-5.204-.727-6.977-1.886-2.036-1.341-4.846-3.205-8.523-3.205-2.734 0-5.204.727-6.977 1.886v-.909c1.773-1.159 4.243-1.886 6.977-1.886z" opacity=".268"/></g></svg>